<svg width="2591" height="855" viewBox="0 0 2591 855" fill="none" xmlns="http://www.w3.org/2000/svg">
<path d="M631.522 502.992L488.609 434.787C487.139 434.084 485.898 432.982 485.029 431.606C484.16 430.231 483.699 428.639 483.699 427.013C483.699 425.388 484.16 423.797 485.029 422.422C485.898 421.046 487.139 419.944 488.609 419.241L631.522 351.032C633.375 350.181 634.899 348.75 635.862 346.957C636.825 345.164 637.175 343.107 636.858 341.098C636.633 339.794 636.129 338.554 635.379 337.462C634.628 336.37 633.651 335.451 632.512 334.77C631.373 334.089 630.1 333.661 628.78 333.515C627.459 333.369 626.123 333.509 624.862 333.925L463.341 387.22C460.562 388.136 457.608 388.406 454.707 388.008C451.806 387.609 449.037 386.552 446.61 384.92C444.183 383.287 442.164 381.122 440.708 378.591C439.253 376.059 438.399 373.228 438.213 370.317L427.917 208.603C427.768 206.274 426.734 204.088 425.026 202.49C423.319 200.893 421.066 200.003 418.724 200C416.381 200.002 414.127 200.892 412.419 202.49C410.712 204.088 409.679 206.274 409.53 208.603L399.233 369.855C399.043 372.822 398.174 375.705 396.691 378.285C395.207 380.864 393.15 383.069 390.678 384.733C388.205 386.396 385.383 387.472 382.428 387.878C379.473 388.284 376.462 388.01 373.63 387.076L212.772 334.02C210.844 333.353 208.75 333.331 206.809 333.956C204.867 334.582 203.183 335.821 202.012 337.486C201.265 338.581 200.765 339.823 200.545 341.128C200.325 342.433 200.391 343.77 200.737 345.048C201.083 346.325 201.701 347.514 202.55 348.531C203.399 349.549 204.458 350.372 205.656 350.944L348.377 419.061C349.886 419.781 351.16 420.911 352.052 422.321C352.944 423.732 353.417 425.365 353.417 427.032C353.417 428.699 352.944 430.333 352.052 431.743C351.16 433.154 349.886 434.284 348.377 435.004L205.877 503.011C204.024 503.863 202.502 505.294 201.539 507.086C200.577 508.879 200.228 510.936 200.544 512.944C200.769 514.248 201.273 515.488 202.023 516.58C202.773 517.672 203.751 518.591 204.889 519.272C206.027 519.953 207.3 520.382 208.619 520.529C209.939 520.675 211.276 520.537 212.537 520.122L377.72 465.618C380.069 464.845 382.564 464.618 385.014 464.957C387.465 465.295 389.804 466.189 391.854 467.569C393.904 468.949 395.608 470.778 396.837 472.917C398.066 475.056 398.786 477.448 398.942 479.907L409.501 645.454C409.649 647.784 410.682 649.969 412.39 651.567C414.097 653.165 416.351 654.056 418.694 654.057C421.037 654.055 423.29 653.164 424.998 651.566C426.705 649.968 427.738 647.783 427.888 645.454L438.346 481.439C438.513 478.797 439.287 476.228 440.608 473.931C441.928 471.634 443.761 469.67 445.963 468.19C448.166 466.709 450.68 465.752 453.313 465.392C455.945 465.033 458.625 465.281 461.146 466.116L624.866 520.136C626.127 520.552 627.464 520.691 628.784 520.545C630.104 520.399 631.377 519.97 632.516 519.289C633.655 518.608 634.633 517.689 635.383 516.596C636.133 515.504 636.637 514.263 636.862 512.958C637.185 510.944 636.838 508.879 635.874 507.08C634.91 505.28 633.382 503.845 631.522 502.992Z" fill="#BD00FF"/>
<g clip-path="url(#clip0_5659_4660)">
<path fill-rule="evenodd" clip-rule="evenodd" d="M769.881 418.445C769.881 343.483 826.565 284.399 905.487 284.399C952.911 284.399 995.15 308.401 1017.01 346.069L979.961 367.484C966.251 342.006 938.089 325.76 905.487 325.76C849.538 325.76 812.489 365.27 812.489 418.445C812.489 471.62 849.538 511.127 905.487 511.127C938.089 511.127 966.621 494.88 979.961 469.402L1017.01 490.448C995.519 528.113 953.285 552.487 905.487 552.487C826.565 552.487 769.881 493.403 769.881 418.445ZM1137.24 359.727V402.933C1110.93 401.091 1080.18 413.27 1080.18 454.63V547.684H1040.16V363.049H1080.18V394.069C1091.29 368.959 1113.89 359.727 1137.24 359.727ZM1278.22 553.594L1349.36 363.05L1306.75 363.058L1259.32 497.104L1204.12 363.058H1160.4L1238.95 544.369L1237.1 548.053C1227.83 572.426 1213.75 585.714 1187.82 584.241V621.537C1230.43 624.12 1260.81 600.488 1278.22 553.594ZM1499.04 495.622C1499.04 532.546 1466.8 552.488 1426.79 552.488C1389.74 552.488 1363.07 535.869 1351.21 509.282L1385.67 489.344C1391.58 505.959 1406.42 515.931 1426.79 515.931C1444.58 515.931 1458.28 510.037 1458.28 495.249C1458.28 481.66 1441.24 476.848 1421.25 471.203C1392.9 463.197 1358.62 453.516 1358.62 414.751C1358.62 380.041 1388.63 358.253 1426.42 358.253C1456.8 358.253 1482 372.285 1494.97 396.659L1461.25 415.491C1454.6 401.091 1441.62 394.441 1426.42 394.441C1411.97 394.441 1399.37 400.703 1399.37 414.014C1399.37 427.865 1416.31 432.555 1436.22 438.069C1464.61 445.931 1499.04 455.467 1499.04 495.622ZM1584.26 490.076V401.454H1630.21V363.048H1584.26V311.351H1544.25V363.048H1510.16V401.454H1544.25V490.076C1544.25 538.082 1568.7 555.051 1630.21 547.683V511.863C1599.83 513.34 1584.26 513.709 1584.26 490.076ZM1845.85 547.688H1805.84V521.1C1791.76 540.669 1769.9 552.488 1741 552.488C1690.61 552.488 1648.74 510.022 1648.74 455.37C1648.74 400.35 1690.61 358.253 1741 358.253C1769.9 358.253 1791.76 370.072 1805.84 389.273V363.053H1845.85V547.688ZM1805.84 455.37C1805.84 421.028 1780.64 396.286 1747.3 396.286C1713.95 396.286 1688.76 421.028 1688.76 455.37C1688.76 489.712 1713.95 514.454 1747.3 514.454C1780.64 514.454 1805.84 489.712 1805.84 455.37ZM1918.64 289.196H1878.62V547.682H1918.64V289.196ZM2177.42 418.442C2177.42 490.445 2124.8 547.684 2053.29 547.684H1951.41V289.196H2053.29C2124.8 289.196 2177.42 346.066 2177.42 418.442ZM2136.29 418.442C2136.29 367.113 2102.57 329.816 2053.29 329.816H1994.01V507.064H2053.29C2102.57 507.064 2136.29 469.399 2136.29 418.442ZM2310.77 547.684C2353.75 547.684 2388.58 516.664 2388.58 473.83C2388.84 461.405 2385.58 449.158 2379.15 438.506C2372.72 427.854 2363.4 419.234 2352.27 413.642C2360.6 407.611 2367.35 399.657 2371.93 390.461C2376.51 381.265 2378.79 371.1 2378.57 360.835C2378.57 319.475 2344.49 289.196 2302.62 289.196H2199.62V547.684H2310.77ZM2242.23 397.023V329.079H2302.62C2307.07 329.051 2311.48 329.915 2315.58 331.622C2319.69 333.328 2323.41 335.841 2326.52 339.011C2329.64 342.181 2332.08 345.943 2333.7 350.073C2335.32 354.203 2336.09 358.616 2335.97 363.049C2336.09 367.482 2335.32 371.896 2333.7 376.027C2332.08 380.157 2329.64 383.919 2326.53 387.089C2323.41 390.26 2319.69 392.773 2315.59 394.48C2311.48 396.186 2307.07 397.052 2302.62 397.023H2242.23ZM2343.61 457.85C2345.31 462.234 2346.12 466.914 2345.97 471.612H2345.98C2346.12 476.311 2345.32 480.992 2343.62 485.376C2341.92 489.76 2339.35 493.759 2336.07 497.134C2332.78 500.509 2328.85 503.193 2324.51 505.025C2320.16 506.858 2315.5 507.801 2310.78 507.8H2242.24V435.425H2310.77C2315.49 435.424 2320.16 436.368 2324.5 438.2C2328.84 440.032 2332.77 442.716 2336.06 446.092C2339.34 449.467 2341.91 453.465 2343.61 457.85Z" fill="#E7E7E7"/>
</g>
<defs>
<clipPath id="clip0_5659_4660">
<rect width="1620.69" height="454.057" fill="white" transform="translate(769.551 200)"/>
</clipPath>
</defs>
</svg>
