<svg width="23" height="24" viewBox="0 0 23 24" fill="none" xmlns="http://www.w3.org/2000/svg">
<path d="M22.1316 16.0152L14.7949 12.4101C14.7194 12.3729 14.6556 12.3146 14.611 12.242C14.5664 12.1693 14.5428 12.0851 14.5428 11.9992C14.5428 11.9133 14.5664 11.8292 14.611 11.7565C14.6556 11.6838 14.7194 11.6255 14.7949 11.5883L22.1316 7.98309C22.2267 7.93807 22.3049 7.86242 22.3543 7.76766C22.4038 7.6729 22.4217 7.56418 22.4055 7.458C22.3939 7.38906 22.368 7.32352 22.3295 7.26579C22.291 7.20806 22.2408 7.15951 22.1823 7.12351C22.1239 7.08751 22.0585 7.06489 21.9907 7.05717C21.923 7.04945 21.8544 7.05686 21.7897 7.07883L13.4977 9.89582C13.355 9.94428 13.2033 9.95855 13.0544 9.93747C12.9055 9.9164 12.7633 9.86054 12.6387 9.77425C12.5141 9.68796 12.4105 9.57353 12.3358 9.43972C12.261 9.3059 12.2172 9.15629 12.2077 9.00239L11.6791 0.45473C11.6714 0.331616 11.6184 0.216094 11.5307 0.131638C11.443 0.0471831 11.3274 0.000142215 11.2071 0C11.0869 9.61082e-05 10.9712 0.0471265 10.8835 0.131591C10.7958 0.216056 10.7428 0.3316 10.7352 0.45473L10.2066 8.97799C10.1968 9.13479 10.1522 9.28722 10.076 9.42355C9.99989 9.55987 9.89429 9.67646 9.76735 9.76437C9.64042 9.85228 9.49554 9.90914 9.34382 9.93062C9.19211 9.9521 9.03758 9.93761 8.89218 9.88825L0.634213 7.08384C0.535244 7.04859 0.427764 7.04742 0.328078 7.08048C0.228392 7.11355 0.141932 7.17905 0.081814 7.26707C0.043515 7.32494 0.017845 7.39058 0.00654754 7.45956C-0.00474994 7.52854 -0.00139593 7.59923 0.0163649 7.66676C0.0341257 7.73429 0.065883 7.79709 0.109468 7.85088C0.153054 7.90467 0.207422 7.94815 0.268897 7.97841L7.59578 11.5788C7.67325 11.6169 7.73865 11.6766 7.78443 11.7512C7.83021 11.8257 7.85449 11.9121 7.85449 12.0002C7.85449 12.0883 7.83021 12.1746 7.78443 12.2492C7.73865 12.3237 7.67325 12.3835 7.59578 12.4215L0.280235 16.0162C0.18514 16.0612 0.106972 16.1368 0.0575702 16.2316C0.00816855 16.3263 -0.0097618 16.435 0.00650145 16.5412C0.0180288 16.6101 0.0439246 16.6757 0.0824131 16.7334C0.120902 16.7911 0.171092 16.8397 0.229535 16.8757C0.287978 16.9117 0.353284 16.9344 0.421043 16.9421C0.488801 16.9499 0.557399 16.9425 0.622137 16.9206L9.10212 14.0397C9.22271 13.9988 9.35082 13.9869 9.47661 14.0047C9.6024 14.0226 9.72252 14.0699 9.82773 14.1428C9.93295 14.2158 10.0205 14.3125 10.0835 14.4255C10.1466 14.5386 10.1836 14.665 10.1916 14.795L10.7336 23.5453C10.7413 23.6684 10.7943 23.7839 10.882 23.8684C10.9696 23.9528 11.0854 23.9999 11.2056 24C11.3259 23.9999 11.4416 23.9528 11.5292 23.8683C11.6169 23.7839 11.6699 23.6684 11.6776 23.5453L12.2145 14.876C12.2231 14.7363 12.2628 14.6005 12.3306 14.4791C12.3984 14.3577 12.4925 14.2539 12.6055 14.1756C12.7186 14.0974 12.8477 14.0468 12.9828 14.0278C13.118 14.0088 13.2555 14.0219 13.385 14.066L21.7898 16.9214C21.8546 16.9433 21.9232 16.9507 21.991 16.943C22.0588 16.9352 22.1241 16.9126 22.1826 16.8766C22.241 16.8406 22.2912 16.792 22.3297 16.7343C22.3682 16.6765 22.3941 16.6109 22.4057 16.542C22.4223 16.4355 22.4045 16.3264 22.355 16.2312C22.3055 16.1361 22.227 16.0603 22.1316 16.0152Z" fill="#E513FF"/>
</svg>
